<?xml version="1.0" encoding="UTF-8"?>
<!-- Generated by jsxcad -->
<!DOCTYPE svg PUBLIC "-//W3C//DTD SVG 1.1 Tiny//EN" "http://www.w3.org/Graphics/SVG/1.1/DTD/svg11-tiny.dtd">
<svg viewBox="-250 -250 500 500" width="500" height="500" xmlns="http://www.w3.org/2000/svg"><path d="M69.16034705176155,130.94616066801478L64.4041635988945,50.3429506862906L28.627199769383513,58.96923764210492zM69.16034705176155,130.94616066801478L28.627199769383513,58.96923764210492L30.721545128470574,139.45073402387496z" style="fill:rgb(83,212,212)"/><path d="M6.453921995820091,96.13016617577438L28.627199769383513,58.96923764210492L5.9943217719080675,15.14392030516721z" style="fill:rgb(247,158,158)"/><path d="M68.70841000780403,141.87986885456374L12.910499992438492,148.30541504936932L27.18096586297736,148.77140581140156zM68.70841000780403,141.87986885456374L27.18096586297736,148.77140581140156L35.63417919881331,148.22036765498024zM68.70841000780403,141.87986885456374L35.63417919881331,148.22036765498024L41.439775572503926,147.8412557890964zM68.70841000780403,141.87986885456374L-0.9776620108182686,146.4641728055171L12.910499992438492,148.30541504936932z" style="fill:rgb(127,37,217)"/><path d="M6.453921995820091,96.13016617577438L5.9943217719080675,15.14392030516721L-56.63760727290335,31.00695191224034z" style="fill:rgb(83,212,212)"/><path d="M6.453921995820091,96.13016617577438L30.721545128470574,139.45073402387496L28.627199769383513,58.96923764210492z" style="fill:rgb(247,158,158)"/><path d="M68.70841000780403,141.87986885456374L41.439775572503926,147.8412557890964L55.383001743197354,145.53078845742692zM30.721545128470574,139.45073402387496L-1.0683960641400767,146.4519799445171L-0.9776620108182686,146.4641728055171zM30.721545128470574,139.45073402387496L-14.454730035734519,143.2420370446463L-1.0683960641400767,146.4519799445171zM30.721545128470574,139.45073402387496L-26.95042765480481,138.73058195711448L-14.454730035734519,143.2420370446463zM68.70841000780403,141.87986885456374L73.74166672474331,139.8811014056992L81.1172170548782,136.9510602658857z" style="fill:rgb(127,37,217)"/><path d="M7.485825503551201,-69.27248860091494L69.16034705176155,130.94616066801478L64.4041635988945,50.3429506862906z" style="fill:rgb(247,158,158)"/><path d="M68.70841000780403,141.87986885456374L101.972689099792,123.68644046220952L-0.9776620108182686,146.4641728055171zM30.721545128470574,139.45073402387496L-38.26940304391384,132.99736052161325L-26.95042765480481,138.73058195711448zM68.70841000780403,141.87986885456374L81.1172170548782,136.9510602658857L92.31883337546559,130.8324835894305zM30.721545128470574,139.45073402387496L-48.13006101323629,126.14851171295957L-38.26940304391384,132.99736052161325zM68.70841000780403,141.87986885456374L92.31883337546559,130.8324835894305L101.972689099792,123.68644046220952z" style="fill:rgb(127,37,217)"/><path d="M6.453921995820091,96.13016617577438L-56.63760727290335,31.00695191224034L-60.907984371029066,111.8432107678574z" style="fill:rgb(83,212,212)"/><path d="M30.721545128470574,139.45073402387496L-56.276054578668024,118.31617556914678L-48.13006101323629,126.14851171295957zM30.721545128470574,139.45073402387496L-60.907984371029066,111.8432107678574L-56.276054578668024,118.31617556914678z" style="fill:rgb(127,37,217)"/><path d="M117.59151087647717,70.20586445058105L109.00466129530278,-10.945909277635053L43.174040680678665,5.727268229741453z" style="fill:rgb(83,212,212)"/><path d="M109.00466129530278,-10.945909277635053L120.228043283622,77.47840139359641L111.50963290033135,-3.637209124747421z" style="fill:rgb(248,154,154)"/><path d="M101.972689099792,123.68644046220952L102.03596558735804,123.63934475154632L110.0074674370437,115.51331734165548zM30.721545128470574,139.45073402387496L6.453921995820091,96.13016617577438L-60.907984371029066,111.8432107678574zM101.972689099792,123.68644046220952L110.0074674370437,115.51331734165548L115.9948305102833,106.62460120452828zM101.972689099792,123.68644046220952L46.517028277204105,86.78492094484122L69.16034705176155,130.94616066801478zM101.972689099792,123.68644046220952L115.9948305102833,106.62460120452828L119.79540507991848,97.16912979527427z" style="fill:rgb(127,37,217)"/><path d="M117.59151087647717,70.20586445058105L43.174040680678665,5.727268229741453L46.517028277204105,86.78492094484122z" style="fill:rgb(83,212,212)"/><path d="M101.972689099792,123.68644046220952L119.79540507991848,97.16912979527427L121.24263384905463,87.37235119407391z" style="fill:rgb(127,37,217)"/><path d="M109.00466129530278,-10.945909277635053L117.59151087647717,70.20586445058105L120.228043283622,77.47840139359641z" style="fill:rgb(248,154,154)"/><path d="M101.972689099792,123.68644046220952L121.24263384905463,87.37235119407391L120.228043283622,77.47840139359641zM30.721545128470574,139.45073402387496L69.16034705176155,130.94616066801478L8.110930819707036,11.881551351866243zM101.972689099792,123.68644046220952L117.59151087647717,70.20586445058105L46.517028277204105,86.78492094484122zM101.972689099792,123.68644046220952L120.228043283622,77.47840139359641L117.59151087647717,70.20586445058105z" style="fill:rgb(127,37,217)"/><path d="M7.485825503551201,-69.27248860091494L8.110930819707036,11.881551351866243L69.16034705176155,130.94616066801478z" style="fill:rgb(247,158,158)"/><path d="M-32.0120328463494,-58.44992902656804L8.110930819707036,11.881551351866243L7.485825503551201,-69.27248860091494z" style="fill:rgb(83,212,212)"/><path d="M30.721545128470574,139.45073402387496L8.110930819707036,11.881551351866243L-34.657007451550896,22.742310864401645z" style="fill:rgb(127,37,217)"/><path d="M-32.0120328463494,-58.44992902656804L-34.657007451550896,22.742310864401645L8.110930819707036,11.881551351866243z" style="fill:rgb(83,212,212)"/><path d="M-26.548580013603367,-11.2802154248208L-77.59142881712474,-105.37726943188532L-31.829673767130114,-19.84836237960861z" style="fill:rgb(16,64,133)"/><path d="M-13.032786432684532,-10.620489791853979L-72.43548427767597,-97.14924415043714L-26.548580013603367,-11.2802154248208z" style="fill:rgb(81,32,199)"/><path d="M6.304672796048004,-29.930176072808816L-43.304566108585234,-105.4960943013943L0.6814952975808071,-18.41170391301338z" style="fill:rgb(238,121,190)"/><path d="M0.6814952975808071,-18.41170391301338L-58.1805755773166,-97.13175600104482L-13.032786432684532,-10.620489791853979zM-46.79279229831486,-105.88262228096089L-70.92557098022303,-116.8185992845483L-61.00755749949659,-97.89127567127767z" style="fill:rgb(173,56,222)"/><path d="M-32.87781668156494,-105.93338185247543L-56.46739005932706,-124.92834131151291L-46.79279229831486,-105.88262228096089z" style="fill:rgb(81,32,198)"/><path d="M-26.548580013603367,-11.2802154248208L-72.43548427767597,-97.14924415043714L-77.59142881712474,-105.37726943188532z" style="fill:rgb(16,64,133)"/><path d="M-46.79279229831486,-105.88262228096089L-56.46739005932706,-124.92834131151291L-70.92557098022303,-116.8185992845483z" style="fill:rgb(173,56,222)"/><path d="M-61.00755749949659,-97.89127567127767L-77.59142881712474,-105.37726943188532L-67.4755150224373,-86.47058975504638zM6.304672796048004,-29.930176072808816L-36.82261733016633,-117.1584027257967L-43.304566108585234,-105.4960943013943zM-61.00755749949659,-97.89127567127767L-70.92557098022303,-116.8185992845483L-77.59142881712474,-105.37726943188532z" style="fill:rgb(238,121,190)"/><path d="M-70.92557098022303,-116.8185992845483L-56.46739005932706,-124.92834131151291L-70.62077469508982,-120.79067762841512z" style="fill:rgb(83,212,212)"/><path d="M-32.87781668156494,-105.93338185247543L-42.39637549662466,-125.13107836235469L-56.46739005932706,-124.92834131151291z" style="fill:rgb(81,32,198)"/><path d="M-77.59142881712474,-105.37726943188532L-70.62077469508982,-120.79067762841512L-76.4547725700575,-119.08514047388918z" style="fill:rgb(83,212,212)"/><path d="M-27.28338248715688,-97.86457411009782L-42.39637549662466,-125.13107836235469L-32.87781668156494,-105.93338185247543z" style="fill:rgb(16,64,133)"/><path d="M-13.032786432684532,-10.620489791853979L-58.1805755773166,-97.13175600104482L-72.43548427767597,-97.14924415043714z" style="fill:rgb(81,32,199)"/><path d="M-77.59142881712474,-105.37726943188532L-70.92557098022303,-116.8185992845483L-70.62077469508982,-120.79067762841512z" style="fill:rgb(83,212,212)"/><path d="M0.6814952975808071,-18.41170391301338L-43.304566108585234,-105.4960943013943L-58.1805755773166,-97.13175600104482z" style="fill:rgb(173,56,222)"/><path d="M-42.39637549662466,-125.13107836235469L-42.212879079491096,-129.09557007765574L-56.46739005932706,-124.92834131151291zM-113.3699051564122,-110.51622491081817L-64.51303541516585,-160.1304882779544L-80.22401802973083,-153.6510579943099zM-42.39637549662466,-125.13107836235469L-36.27773459918111,-130.83067688617726L-42.212879079491096,-129.09557007765574zM-113.3699051564122,-110.51622491081817L-80.22401802973083,-153.6510579943099L-94.37107906741937,-144.3607588724927zM-72.43548427767597,-97.14924415043714L-56.46739005932706,-124.92834131151291L-70.92613577361462,-116.818828458451zM-113.3699051564122,-110.51622491081817L-48.94051685983289,-163.0779417269922L-64.51303541516585,-160.1304882779544zM-113.3699051564122,-110.51622491081817L-94.37107906741937,-144.3607588724927L-105.4005945095111,-133.25343515007418z" style="fill:rgb(83,212,212)"/><path d="M-37.38411766512122,-103.06915730822315L-26.886281349740678,-111.59331509687323L-36.27773459918111,-130.83067688617726z" style="fill:rgb(247,158,158)"/><path d="M-72.43548427767597,-97.14924415043714L-42.39574708974151,-125.13166338334817L-56.46739005932706,-124.92834131151291z" style="fill:rgb(83,212,212)"/><path d="M-27.28338248715688,-97.86457411009782L-36.82261733016633,-117.1584027257967L-42.39637549662466,-125.13107836235469z" style="fill:rgb(16,64,133)"/><path d="M-72.43548427767597,-97.14924415043714L-70.92613577361462,-116.818828458451L-77.59142881712474,-105.37726943188532zM-42.39637549662466,-125.13107836235469L-36.82261733016633,-117.1584027257967L-36.27773459918111,-130.83067688617726zM-113.3699051564122,-110.51622491081817L-35.23568613466788,-162.1052291068673L-48.94051685983289,-163.0779417269922zM-113.3699051564122,-110.51622491081817L-105.4005945095111,-133.25343515007418L-112.02812058675109,-121.53030624103295z" style="fill:rgb(83,212,212)"/><path d="M-37.38411766512122,-103.06915730822315L-27.692389565947895,-83.7242161070582L-26.886281349740678,-111.59331509687323z" style="fill:rgb(247,158,158)"/><path d="M-72.43548427767597,-97.14924415043714L-36.82261733016633,-117.1584027257967L-42.39574708974151,-125.13166338334817zM-78.76239177466326,-91.25564522194188L-72.43484335687533,-97.14984555518409L-77.59142881712474,-105.37726943188532zM-113.3699051564122,-110.51622491081817L-25.01322773534831,-157.2158254109698L-35.23568613466788,-162.1052291068673z" style="fill:rgb(83,212,212)"/><path d="M-37.38411766512122,-103.06915730822315L-68.47677908108943,-72.30465841111696L-27.692389565947895,-83.7242161070582zM-37.38411766512122,-103.06915730822315L-78.76239177466326,-91.25564522194188L-68.47677908108943,-72.30465841111696z" style="fill:rgb(127,37,217)"/><path d="M-72.43548427767597,-97.14924415043714L-43.304566108585234,-105.4960943013943L-36.82261733016633,-117.1584027257967zM-78.76239177466326,-91.25564522194188L-72.75553448918699,-92.97060633921338L-72.43484335687533,-97.14984555518409zM-72.75553448918699,-92.97060633921338L-58.1805755773166,-97.13175600104482L-72.43484335687533,-97.14984555518409zM-72.43548427767597,-97.14924415043714L-58.1805755773166,-97.13175600104482L-43.304566108585234,-105.4960943013943zM-43.49830631432512,-101.32355303923839L-36.82261733016633,-117.1584027257967L-43.305169096439684,-105.49633696703461zM-113.3699051564122,-110.51622491081817L-19.60061498181613,-148.8527151593292L-25.01322773534831,-157.2158254109698zM-43.49830631432512,-101.32355303923839L-37.38411766512122,-103.06915730822315L-36.82261733016633,-117.1584027257967zM-43.49830631432512,-101.32355303923839L-43.305169096439684,-105.49633696703461L-58.1805755773166,-97.13175600104482z" style="fill:rgb(83,212,212)"/><path d="M-89.34146381679291,-77.64284077786465L-109.08213990372509,-101.54261007555776L-98.9091613052738,-83.51784225778798z" style="fill:rgb(35,45,161)"/><path d="M-10.850907333206786,-130.10818661874328L-19.840958469771177,-137.91174019003864L-10.981841139512598,-119.11539049983759zM-10.850907333206786,-130.10818661874328L-19.60061498181613,-148.8527151593292L-19.840958469771177,-137.91174019003864z" style="fill:rgb(247,158,158)"/><path d="M-113.3699051564122,-110.51622491081817L-19.840958469771177,-137.91174019003864L-19.60061498181613,-148.8527151593292zM-113.3699051564122,-110.51622491081817L-109.08213990372509,-101.54261007555776L-99.48242138156554,-95.79051230699321z" style="fill:rgb(83,212,212)"/><path d="M-89.34146381679291,-77.64284077786465L-99.48242138156554,-95.79051230699321L-109.08213990372509,-101.54261007555776z" style="fill:rgb(35,45,161)"/><path d="M-75.59080450483562,-75.8092680152185L-99.48242138156554,-95.79051230699321L-89.34146381679291,-77.64284077786465z" style="fill:rgb(67,34,190)"/><path d="M-113.3699051564122,-110.51622491081817L-25.90537286401054,-125.68979181131351L-19.840958469771177,-137.91174019003864z" style="fill:rgb(83,212,212)"/><path d="M-10.981841139512598,-119.11539049983759L-25.90537286401054,-125.68979181131351L-16.859806717739254,-106.90169658146189z" style="fill:rgb(240,125,187)"/><path d="M-113.3699051564122,-110.51622491081817L-99.48242138156554,-95.79051230699321L-85.60669318162263,-94.10605678562149z" style="fill:rgb(83,212,212)"/><path d="M-10.981841139512598,-119.11539049983759L-19.840958469771177,-137.91174019003864L-25.90537286401054,-125.68979181131351z" style="fill:rgb(240,125,187)"/><path d="M-113.3699051564122,-110.51622491081817L-37.17425428673475,-113.74449524517613L-25.90537286401054,-125.68979181131351zM-113.3699051564122,-110.51622491081817L-85.60669318162263,-94.10605678562149L-69.14870609907179,-96.82604258393285z" style="fill:rgb(83,212,212)"/><path d="M-59.33688599161451,-78.3705180972053L-85.60669318162263,-94.10605678562149L-75.59080450483562,-75.8092680152185z" style="fill:rgb(106,33,210)"/><path d="M-75.59080450483562,-75.8092680152185L-85.60669318162263,-94.10605678562149L-99.48242138156554,-95.79051230699321z" style="fill:rgb(67,34,190)"/><path d="M-16.859806717739254,-106.90169658146189L-37.17425428673475,-113.74449524517613L-27.88546318531032,-95.02404711901353z" style="fill:rgb(219,93,209)"/><path d="M-113.3699051564122,-110.51622491081817L-52.251860227576266,-103.66933716074767L-37.17425428673475,-113.74449524517613zM-113.3699051564122,-110.51622491081817L-69.14870609907179,-96.82604258393285L-52.251860227576266,-103.66933716074767z" style="fill:rgb(83,212,212)"/><path d="M-16.859806717739254,-106.90169658146189L-25.90537286401054,-125.68979181131351L-37.17425428673475,-113.74449524517613z" style="fill:rgb(219,93,209)"/><path d="M-42.69484088522131,-85.06561852884293L-69.14870609907179,-96.82604258393285L-59.33688599161451,-78.3705180972053z" style="fill:rgb(148,44,221)"/><path d="M-27.88546318531032,-95.02404711901353L-52.251860227576266,-103.66933716074767L-42.69484088522131,-85.06561852884293z" style="fill:rgb(187,64,221)"/><path d="M-59.33688599161451,-78.3705180972053L-69.14870609907179,-96.82604258393285L-85.60669318162263,-94.10605678562149z" style="fill:rgb(106,33,210)"/><path d="M-27.88546318531032,-95.02404711901353L-37.17425428673475,-113.74449524517613L-52.251860227576266,-103.66933716074767z" style="fill:rgb(187,64,221)"/><path d="M-42.69484088522131,-85.06561852884293L-52.251860227576266,-103.66933716074767L-69.14870609907179,-96.82604258393285z" style="fill:rgb(148,44,221)"/></svg>
