<?xml version="1.0" encoding="UTF-8"?>
<!-- Generated by jsxcad -->
<!DOCTYPE svg PUBLIC "-//W3C//DTD SVG 1.1 Tiny//EN" "http://www.w3.org/Graphics/SVG/1.1/DTD/svg11-tiny.dtd">
<svg viewBox="-250 -250 500 500" width="500" height="500" xmlns="http://www.w3.org/2000/svg"><path d="M27.147992957890125,110.57356858341757L29.028695020875613,84.20683134667179L26.410451890973928,79.26329129227393z" style="fill:rgb(247,158,158)"/><path d="M19.07338427987999,106.94464546043099L26.410451890973928,79.26329129227393L18.6608668812016,82.11448044482951z" style="fill:rgb(135,217,217)"/><path d="M27.81608056164786,138.91563112778658L25.806964235838787,53.6835577988705L9.404103067575686,21.927405439297605zM27.147992957890125,110.57356858341757L29.835124510858044,115.48920675393897L29.028695020875613,84.20683134667179z" style="fill:rgb(247,158,158)"/><path d="M19.07338427987999,106.94464546043099L27.147992957890125,110.57356858341757L26.410451890973928,79.26329129227393z" style="fill:rgb(135,217,217)"/><path d="M67.04933948327798,101.45481120911552L71.40606423019777,69.667335569293L65.20915229554366,70.09770048626453z" style="fill:rgb(39,192,192)"/><path d="M73.00510980946827,94.54686945652799L74.75849669613508,76.67935824880183L71.40606423019777,69.667335569293z" style="fill:rgb(247,158,158)"/><path d="M27.148524852251114,110.57370506826305L22.836801828753604,113.74805440134669L29.83565453252381,115.48934423001249zM27.148524852251114,110.57370506826305L19.07338427987999,106.94464546043099L22.836801828753604,113.74805440134669z" style="fill:rgb(67,34,190)"/><path d="M73.00510980946827,94.54686945652799L76.4205878284076,101.53110971909406L74.75849669613508,76.67935824880183z" style="fill:rgb(247,158,158)"/><path d="M67.04933948327798,101.45481120911552L73.00510980946827,94.54686945652799L71.40606423019777,69.667335569293z" style="fill:rgb(39,192,192)"/><path d="M10.161659958175495,107.56198218273487L9.404103067575686,21.927405439297605L-22.380956087869933,29.917800992501828z" style="fill:rgb(83,212,212)"/><path d="M73.00510980946827,94.54686945652799L69.54993174825248,106.46728403043288L76.4205878284076,101.53110971909406z" style="fill:rgb(187,64,221)"/><path d="M-18.82317827016485,69.51499340451059L-23.32168921966174,74.93632182562449L-19.062854319252335,83.65669742773804zM-18.82317827016485,69.51499340451059L-23.240485149405426,71.05032338841018L-23.32168921966174,74.93632182562449z" style="fill:rgb(244,164,164)"/><path d="M73.00510980946827,94.54686945652799L67.04882029432007,101.4551885207721L69.54993174825248,106.46728403043288z" style="fill:rgb(187,64,221)"/><path d="M-23.32168921966174,74.93632182562449L-23.240485149405426,71.05032338841018L-23.54871093757143,74.03088745617755z" style="fill:rgb(83,212,212)"/><path d="M81.29329040954804,3.8552934511105676L90.65428855925887,97.24307182179516L83.82691984522735,11.510758395048091z" style="fill:rgb(250,152,152)"/><path d="M27.81608056164786,138.91563112778658L9.404103067575686,21.927405439297605L10.161659958175495,107.56198218273487z" style="fill:rgb(247,158,158)"/><path d="M87.96755419838365,89.6485820502792L81.29329040954804,3.8552934511105676L48.37606116083382,12.13030484768325zM10.161659958175495,107.56198218273487L-22.380956087869933,29.917800992501828L-24.168618820093254,115.46590947804621z" style="fill:rgb(83,212,212)"/><path d="M-19.164303316376166,122.3087984057299L18.701098228200344,138.57572846474693L27.81608056164786,138.91563112778658z" style="fill:rgb(127,37,217)"/><path d="M84.4989218364069,45.061590578860205L88.00568893491172,54.57678597087858L86.21324240215698,44.16601894638485z" style="fill:rgb(247,164,152)"/><path d="M-19.164303316376166,122.3087984057299L3.9615028644331507,135.42728293143617L18.701098228200344,138.57572846474693zM-19.164303316376166,122.3087984057299L-8.96442718863777,129.8936424106232L3.9615028644331507,135.42728293143617z" style="fill:rgb(127,37,217)"/><path d="M84.98748578528269,47.92835748652768L87.34000019403638,58.350043628012244L88.00568893491172,54.57678597087858z" style="fill:rgb(244,139,176)"/><path d="M84.4989218364069,45.061590578860205L84.98748578528269,47.92835748652768L88.00568893491172,54.57678597087858z" style="fill:rgb(247,164,152)"/><path d="M-31.95634687453556,-157.43650797017247L75.77825769993767,143.6317787123354L70.33144339122268,58.47404147996989z" style="fill:rgb(247,158,158)"/><path d="M84.98748578528269,47.92835748652768L84.80210247726451,48.95877911770604L87.34000019403638,58.350043628012244z" style="fill:rgb(244,139,176)"/><path d="M84.80210247726451,48.95877911770604L84.98748578528269,47.92835748652768L84.4989218364069,45.061590578860205z" style="fill:rgb(83,212,212)"/><path d="M68.71592693178083,129.85472774820104L75.74063644691844,125.90616036161451L84.64643708535884,117.37768048497789zM-19.164303316376166,122.3087984057299L27.81608056164786,138.91563112778658L10.161659958175495,107.56198218273487z" style="fill:rgb(127,37,217)"/><path d="M87.96755419838365,89.6485820502792L48.37606116083382,12.13030484768325L52.31353564652946,97.85727605503266z" style="fill:rgb(83,212,212)"/><path d="M68.71592693178083,129.85472774820104L84.64643708535884,117.37768048497789L89.78228552969263,107.59748073954879z" style="fill:rgb(127,37,217)"/><path d="M81.29329040954804,3.8552934511105676L87.96755419838365,89.6485820502792L90.65428855925887,97.24307182179516z" style="fill:rgb(250,152,152)"/><path d="M-19.164303316376166,122.3087984057299L10.161659958175495,107.56198218273487L-24.168618820093254,115.46590947804621zM68.71592693178083,129.85472774820104L89.78228552969263,107.59748073954879L90.65428855925887,97.24307182179516zM68.71592693178083,129.85472774820104L87.96755419838365,89.6485820502792L52.31353564652946,97.85727605503266zM68.71592693178083,129.85472774820104L90.65428855925887,97.24307182179516L87.96755419838365,89.6485820502792zM35.42128830643979,152.422210473295L75.77825769993767,143.6317787123354L-35.026989862131494,-72.52485049734476z" style="fill:rgb(127,37,217)"/><path d="M-31.95634687453556,-157.43650797017247L-35.026989862131494,-72.52485049734476L75.77825769993767,143.6317787123354z" style="fill:rgb(247,158,158)"/><path d="M35.42128830643979,152.422210473295L-35.026989862131494,-72.52485049734476L-83.63881661496738,-59.02445067279742z" style="fill:rgb(127,37,217)"/><path d="M-76.38776527844466,-144.16675174040722L-35.026989862131494,-72.52485049734476L-31.95634687453556,-157.43650797017247zM-116.07048855646039,-109.41212314713724L-64.38726538571846,-161.84801213506128L-80.9798759070716,-155.00166178378564zM-116.07048855646039,-109.41212314713724L-80.9798759070716,-155.00166178378564L-95.9244647895212,-145.19225290104796zM-116.07048855646039,-109.41212314713724L-47.93305818043442,-164.9730406926258L-64.38726538571846,-161.84801213506128zM-116.07048855646039,-109.41212314713724L-95.9244647895212,-145.19225290104796L-107.58897596884323,-133.4616515497837zM-116.07048855646039,-109.41212314713724L-33.435257223739974,-163.96361132824612L-47.93305818043442,-164.9730406926258zM-116.07048855646039,-109.41212314713724L-107.58897596884323,-133.4616515497837L-114.61815828676578,-121.07006285102881zM-116.07048855646039,-109.41212314713724L-22.599048979612263,-158.81457336137944L-33.435257223739974,-163.96361132824612zM-116.07048855646039,-109.41212314713724L-16.836405294036073,-149.98283032157858L-22.599048979612263,-158.81457336137944zM-76.38776527844466,-144.16675174040722L-83.63881661496738,-59.02445067279742L-35.026989862131494,-72.52485049734476z" style="fill:rgb(83,212,212)"/><path d="M-90.66220028858093,-74.60667324497021L-111.56760718016032,-99.89664485812712L-100.76584633391239,-80.85866879805111z" style="fill:rgb(35,45,161)"/><path d="M-7.62831569079094,-130.1388662691461L-17.05511442602441,-138.40677763337143L-7.725737925408467,-118.50464717195773zM-7.62831569079094,-130.1388662691461L-16.836405294036073,-149.98283032157858L-17.05511442602441,-138.40677763337143z" style="fill:rgb(247,158,158)"/><path d="M-116.07048855646039,-109.41212314713724L-17.05511442602441,-138.40677763337143L-16.836405294036073,-149.98283032157858zM-116.07048855646039,-109.41212314713724L-111.56760718016032,-99.89664485812712L-101.42890288043958,-93.78137815723827z" style="fill:rgb(83,212,212)"/><path d="M-90.66220028858093,-74.60667324497021L-101.42890288043958,-93.78137815723827L-111.56760718016032,-99.89664485812712z" style="fill:rgb(35,45,161)"/><path d="M-76.11295293820811,-72.6335726030716L-101.42890288043958,-93.78137815723827L-90.66220028858093,-74.60667324497021z" style="fill:rgb(67,34,190)"/><path d="M-116.07048855646039,-109.41212314713724L-23.453473587163334,-125.45650384384072L-17.05511442602441,-138.40677763337143z" style="fill:rgb(83,212,212)"/><path d="M-7.725737925408467,-118.50464717195773L-23.453473587163334,-125.45650384384072L-13.915962641421578,-105.56377694521188z" style="fill:rgb(240,125,187)"/><path d="M-116.07048855646039,-109.41212314713724L-101.42890288043958,-93.78137815723827L-86.73975730568351,-91.97467564646279z" style="fill:rgb(83,212,212)"/><path d="M-7.725737925408467,-118.50464717195773L-17.05511442602441,-138.40677763337143L-23.453473587163334,-125.45650384384072z" style="fill:rgb(240,125,187)"/><path d="M-116.07048855646039,-109.41212314713724L-35.38599304995443,-112.78727550721824L-23.453473587163334,-125.45650384384072zM-116.07048855646039,-109.41212314713724L-86.73975730568351,-91.97467564646279L-69.29378888796916,-94.84481751413543z" style="fill:rgb(83,212,212)"/><path d="M-58.89609629157041,-75.32602513969336L-86.73975730568351,-91.97467564646279L-76.11295293820811,-72.6335726030716z" style="fill:rgb(106,33,210)"/><path d="M-76.11295293820811,-72.6335726030716L-86.73975730568351,-91.97467564646279L-101.42890288043958,-93.78137815723827z" style="fill:rgb(67,34,190)"/><path d="M-13.915962641421578,-105.56377694521188L-35.38599304995443,-112.78727550721824L-25.575913633629586,-92.97080034642234z" style="fill:rgb(219,93,209)"/><path d="M-116.07048855646039,-109.41212314713724L-51.372858165629225,-102.09871021859293L-35.38599304995443,-112.78727550721824zM-116.07048855646039,-109.41212314713724L-69.29378888796916,-94.84481751413543L-51.372858165629225,-102.09871021859293z" style="fill:rgb(83,212,212)"/><path d="M-13.915962641421578,-105.56377694521188L-23.453473587163334,-125.45650384384072L-35.38599304995443,-112.78727550721824z" style="fill:rgb(219,93,209)"/><path d="M-41.261538328473776,-82.41356602777168L-69.29378888796916,-94.84481751413543L-58.89609629157041,-75.32602513969336z" style="fill:rgb(148,44,221)"/><path d="M-25.575913633629586,-92.97080034642234L-51.372858165629225,-102.09871021859293L-41.261538328473776,-82.41356602777168z" style="fill:rgb(187,64,221)"/><path d="M-58.89609629157041,-75.32602513969336L-69.29378888796916,-94.84481751413543L-86.73975730568351,-91.97467564646279z" style="fill:rgb(106,33,210)"/><path d="M-25.575913633629586,-92.97080034642234L-35.38599304995443,-112.78727550721824L-51.372858165629225,-102.09871021859293z" style="fill:rgb(187,64,221)"/><path d="M-41.261538328473776,-82.41356602777168L-51.372858165629225,-102.09871021859293L-69.29378888796916,-94.84481751413543z" style="fill:rgb(148,44,221)"/></svg>
