<?xml version="1.0" encoding="UTF-8"?>
<!-- Generated by jsxcad -->
<!DOCTYPE svg PUBLIC "-//W3C//DTD SVG 1.1 Tiny//EN" "http://www.w3.org/Graphics/SVG/1.1/DTD/svg11-tiny.dtd">
<svg viewBox="-250 -250 500 500" width="500" height="500" xmlns="http://www.w3.org/2000/svg"><path d="M35.63417919881337,148.2203676549803L41.43977557250397,147.84125578909644L55.38300174319741,145.53078845742695z" style="fill:rgb(127,37,217)"/><path d="M52.38129148607793,98.22199140033223L48.65875330805148,17.253545415048166L11.839734556525785,26.462721800443177zM6.453921995820123,96.13016617577442L5.994321771908074,15.143920305167216L-56.637607272903345,31.006951912240364z" style="fill:rgb(83,212,212)"/><path d="M35.63417919881337,148.2203676549803L55.38300174319741,145.53078845742695L68.70841000780408,141.87986885456374z" style="fill:rgb(127,37,217)"/><path d="M6.453921995820123,96.13016617577442L11.839734556525785,26.462721800443177L5.994321771908074,15.143920305167216z" style="fill:rgb(247,158,158)"/><path d="M35.63417919881337,148.2203676549803L68.70841000780408,141.87986885456374L73.74166672474335,139.8811014056992zM-56.27605457866799,118.31617556914684L12.910499992438544,148.30541504936937L27.180965862977413,148.7714058114016zM-56.27605457866799,118.31617556914684L27.180965862977413,148.7714058114016L35.63417919881337,148.2203676549803zM-56.27605457866799,118.31617556914684L-1.068396064140028,146.45197994451718L12.910499992438544,148.30541504936937zM-56.27605457866799,118.31617556914684L-14.454730035734475,143.24203704464637L-1.068396064140028,146.45197994451718zM73.74166672474335,139.8811014056992L81.11721705487825,136.95106026588573L92.31883337546566,130.83248358943052zM-56.27605457866799,118.31617556914684L-26.95042765480477,138.73058195711454L-14.454730035734475,143.24203704464637zM73.74166672474335,139.8811014056992L92.31883337546566,130.83248358943052L102.03596558735809,123.63934475154635zM-56.27605457866799,118.31617556914684L-38.2694030439138,132.9973605216133L-26.95042765480477,138.73058195711454zM35.63417919881337,148.2203676549803L73.74166672474335,139.8811014056992L52.38129148607793,98.22199140033223z" style="fill:rgb(127,37,217)"/><path d="M6.453921995820123,96.13016617577442L-56.637607272903345,31.006951912240364L-60.90798437102904,111.84321076785746z" style="fill:rgb(83,212,212)"/><path d="M73.74166672474335,139.8811014056992L102.03596558735809,123.63934475154635L110.00746743704379,115.51331734165551z" style="fill:rgb(127,37,217)"/><path d="M52.38129148607793,98.22199140033223L11.839734556525785,26.462721800443177L12.736748475310838,107.34575129059407z" style="fill:rgb(83,212,212)"/><path d="M-56.27605457866799,118.31617556914684L-48.13006101323626,126.1485117129596L-38.2694030439138,132.9973605216133z" style="fill:rgb(127,37,217)"/><path d="M6.453921995820123,96.13016617577442L12.736748475310838,107.34575129059407L11.839734556525785,26.462721800443177z" style="fill:rgb(247,158,158)"/><path d="M117.59151087647722,70.20586445058103L109.00466129530281,-10.945909277635094L43.174040680678665,5.72726822974144z" style="fill:rgb(83,212,212)"/><path d="M109.00466129530281,-10.945909277635094L120.22804328362204,77.47840139359641L111.50963290033135,-3.6372091247474594z" style="fill:rgb(248,154,154)"/><path d="M-56.27605457866799,118.31617556914684L35.63417919881337,148.2203676549803L6.453921995820123,96.13016617577442zM73.74166672474335,139.8811014056992L110.00746743704379,115.51331734165551L115.99483051028335,106.62460120452828zM35.63417919881337,148.2203676549803L52.38129148607793,98.22199140033223L12.736748475310838,107.34575129059407zM73.74166672474335,139.8811014056992L115.99483051028335,106.62460120452828L119.79540507991854,97.16912979527427zM-56.27605457866799,118.31617556914684L6.453921995820123,96.13016617577442L-60.90798437102904,111.84321076785746zM73.74166672474335,139.8811014056992L119.79540507991854,97.16912979527427L121.24263384905467,87.37235119407391z" style="fill:rgb(127,37,217)"/><path d="M-12.369143391757857,-110.99825022748986L52.38129148607793,98.22199140033223L48.65875330805148,17.253545415048166z" style="fill:rgb(247,158,158)"/><path d="M117.59151087647722,70.20586445058103L43.174040680678665,5.72726822974144L46.51702827720414,86.78492094484123z" style="fill:rgb(83,212,212)"/><path d="M73.74166672474335,139.8811014056992L121.24263384905467,87.37235119407391L120.22804328362204,77.47840139359641zM73.74166672474335,139.8811014056992L117.59151087647722,70.20586445058103L46.51702827720414,86.78492094484123z" style="fill:rgb(127,37,217)"/><path d="M109.00466129530281,-10.945909277635094L117.59151087647722,70.20586445058103L120.22804328362204,77.47840139359641z" style="fill:rgb(248,154,154)"/><path d="M73.74166672474335,139.8811014056992L120.22804328362204,77.47840139359641L117.59151087647722,70.20586445058103zM12.736748475310838,107.34575129059407L52.38129148607793,98.22199140033223L-13.444202196170789,-30.157403360399506z" style="fill:rgb(127,37,217)"/><path d="M-12.369143391757857,-110.99825022748986L-13.444202196170789,-30.157403360399506L52.38129148607793,98.22199140033223z" style="fill:rgb(247,158,158)"/><path d="M-53.135048349225,-99.3516108238534L-13.444202196170789,-30.157403360399506L-12.369143391757857,-110.99825022748986z" style="fill:rgb(83,212,212)"/><path d="M12.736748475310838,107.34575129059407L-13.444202196170789,-30.157403360399506L-57.70257844852797,-18.39675113282921z" style="fill:rgb(127,37,217)"/><path d="M-48.59304380547359,-52.532433681213604L-77.59142881712478,-105.37726943188532L-53.82435431481686,-60.95651464476747z" style="fill:rgb(16,64,133)"/><path d="M-53.135048349225,-99.3516108238534L-57.70257844852797,-18.39675113282921L-13.444202196170789,-30.157403360399506z" style="fill:rgb(83,212,212)"/><path d="M-46.7927922983149,-105.88262228096092L-70.92557098022309,-116.81859928454834L-61.00755749949663,-97.89127567127767z" style="fill:rgb(173,56,222)"/><path d="M-32.87781668156498,-105.93338185247545L-56.46739005932711,-124.92834131151295L-46.7927922983149,-105.88262228096092z" style="fill:rgb(81,32,198)"/><path d="M-46.7927922983149,-105.88262228096092L-56.46739005932711,-124.92834131151295L-70.92557098022309,-116.81859928454834z" style="fill:rgb(173,56,222)"/><path d="M-61.00755749949663,-97.89127567127767L-77.59142881712478,-105.37726943188532L-67.47551502243735,-86.47058975504639z" style="fill:rgb(238,121,190)"/><path d="M-34.71528070990957,-52.168041223947405L-72.435484277676,-97.14924415043714L-48.59304380547359,-52.532433681213604z" style="fill:rgb(81,32,199)"/><path d="M-61.00755749949663,-97.89127567127767L-70.92557098022309,-116.81859928454834L-77.59142881712478,-105.37726943188532z" style="fill:rgb(238,121,190)"/><path d="M-70.92557098022309,-116.81859928454834L-56.46739005932711,-124.92834131151295L-70.62077469508988,-120.79067762841517z" style="fill:rgb(83,212,212)"/><path d="M-14.415551121512724,-71.83840590424747L-43.30456610858528,-105.49609430139431L-20.443719259616664,-60.23577959754041z" style="fill:rgb(238,121,190)"/><path d="M-32.87781668156498,-105.93338185247545L-42.39637549662471,-125.13107836235471L-56.46739005932711,-124.92834131151295z" style="fill:rgb(81,32,198)"/><path d="M-77.59142881712478,-105.37726943188532L-70.62077469508988,-120.79067762841517L-76.45477257005753,-119.08514047388918z" style="fill:rgb(83,212,212)"/><path d="M-27.28338248715692,-97.86457411009786L-42.39637549662471,-125.13107836235471L-32.87781668156498,-105.93338185247545z" style="fill:rgb(16,64,133)"/><path d="M-77.59142881712478,-105.37726943188532L-70.92557098022309,-116.81859928454834L-70.62077469508988,-120.79067762841517z" style="fill:rgb(83,212,212)"/><path d="M-20.443719259616664,-60.23577959754041L-58.18057557731666,-97.13175600104486L-34.71528070990957,-52.168041223947405z" style="fill:rgb(173,56,222)"/><path d="M-42.39637549662471,-125.13107836235471L-42.212879079491145,-129.09557007765576L-56.46739005932711,-124.92834131151295z" style="fill:rgb(83,212,212)"/><path d="M-48.59304380547359,-52.532433681213604L-72.435484277676,-97.14924415043714L-77.59142881712478,-105.37726943188532z" style="fill:rgb(16,64,133)"/><path d="M-113.36990515641224,-110.51622491081818L-64.5130354151659,-160.13048827795444L-80.22401802973089,-153.65105799430992zM-42.39637549662471,-125.13107836235471L-36.27773459918116,-130.8306768861773L-42.212879079491145,-129.09557007765576zM-113.36990515641224,-110.51622491081818L-80.22401802973089,-153.65105799430992L-94.37107906741944,-144.36075887249274zM-72.435484277676,-97.14924415043714L-56.46739005932711,-124.92834131151295L-70.92613577361466,-116.818828458451zM-113.36990515641224,-110.51622491081818L-48.940516859832954,-163.07794172699226L-64.5130354151659,-160.13048827795444zM-113.36990515641224,-110.51622491081818L-94.37107906741944,-144.36075887249274L-105.40059450951115,-133.2534351500742z" style="fill:rgb(83,212,212)"/><path d="M-37.38411766512126,-103.0691573082232L-26.886281349740717,-111.59331509687325L-36.27773459918116,-130.8306768861773z" style="fill:rgb(247,158,158)"/><path d="M-14.415551121512724,-71.83840590424747L-36.82261733016638,-117.15840272579675L-43.30456610858528,-105.49609430139431z" style="fill:rgb(238,121,190)"/><path d="M-72.435484277676,-97.14924415043714L-42.39574708974156,-125.13166338334821L-56.46739005932711,-124.92834131151295z" style="fill:rgb(83,212,212)"/><path d="M-27.28338248715692,-97.86457411009786L-36.82261733016638,-117.15840272579675L-42.39637549662471,-125.13107836235471z" style="fill:rgb(16,64,133)"/><path d="M-72.435484277676,-97.14924415043714L-70.92613577361466,-116.818828458451L-77.59142881712478,-105.37726943188532zM-42.39637549662471,-125.13107836235471L-36.82261733016638,-117.15840272579675L-36.27773459918116,-130.8306768861773zM-113.36990515641224,-110.51622491081818L-35.23568613466794,-162.10522910686737L-48.940516859832954,-163.07794172699226zM-113.36990515641224,-110.51622491081818L-105.40059450951115,-133.2534351500742L-112.02812058675113,-121.53030624103296z" style="fill:rgb(83,212,212)"/><path d="M-34.71528070990957,-52.168041223947405L-58.18057557731666,-97.13175600104486L-72.435484277676,-97.14924415043714z" style="fill:rgb(81,32,199)"/><path d="M-37.38411766512126,-103.0691573082232L-27.69238956594792,-83.7242161070582L-26.886281349740717,-111.59331509687325z" style="fill:rgb(247,158,158)"/><path d="M-20.443719259616664,-60.23577959754041L-43.30456610858528,-105.49609430139431L-58.18057557731666,-97.13175600104486z" style="fill:rgb(173,56,222)"/><path d="M-72.435484277676,-97.14924415043714L-36.82261733016638,-117.15840272579675L-42.39574708974156,-125.13166338334821zM-78.7623917746633,-91.2556452219419L-72.43484335687538,-97.14984555518411L-77.59142881712478,-105.37726943188532zM-113.36990515641224,-110.51622491081818L-25.01322773534837,-157.21582541096987L-35.23568613466794,-162.10522910686737z" style="fill:rgb(83,212,212)"/><path d="M-37.38411766512126,-103.0691573082232L-68.47677908108946,-72.30465841111696L-27.69238956594792,-83.7242161070582zM-37.38411766512126,-103.0691573082232L-78.7623917746633,-91.2556452219419L-68.47677908108946,-72.30465841111696z" style="fill:rgb(127,37,217)"/><path d="M-72.435484277676,-97.14924415043714L-43.30456610858528,-105.49609430139431L-36.82261733016638,-117.15840272579675zM-78.7623917746633,-91.2556452219419L-72.75553448918703,-92.97060633921339L-72.43484335687538,-97.14984555518411zM-72.75553448918703,-92.97060633921339L-58.18057557731666,-97.13175600104486L-72.43484335687538,-97.14984555518411zM-72.435484277676,-97.14924415043714L-58.18057557731666,-97.13175600104486L-43.30456610858528,-105.49609430139431zM-43.49830631432517,-101.32355303923842L-36.82261733016638,-117.15840272579675L-43.30516909643973,-105.49633696703461zM-113.36990515641224,-110.51622491081818L-19.600614981816186,-148.85271515932925L-25.01322773534837,-157.21582541096987zM-43.49830631432517,-101.32355303923842L-37.38411766512126,-103.0691573082232L-36.82261733016638,-117.15840272579675zM-43.49830631432517,-101.32355303923842L-43.30516909643973,-105.49633696703461L-58.18057557731666,-97.13175600104486z" style="fill:rgb(83,212,212)"/><path d="M-89.34146381679292,-77.64284077786463L-109.08213990372515,-101.54261007555775L-98.90916130527384,-83.51784225778798z" style="fill:rgb(35,45,161)"/><path d="M-10.850907333206832,-130.10818661874333L-19.840958469771223,-137.9117401900387L-10.98184113951264,-119.11539049983764zM-10.850907333206832,-130.10818661874333L-19.600614981816186,-148.85271515932925L-19.840958469771223,-137.9117401900387z" style="fill:rgb(247,158,158)"/><path d="M-113.36990515641224,-110.51622491081818L-19.840958469771223,-137.9117401900387L-19.600614981816186,-148.85271515932925zM-113.36990515641224,-110.51622491081818L-109.08213990372515,-101.54261007555775L-99.4824213815656,-95.7905123069932z" style="fill:rgb(83,212,212)"/><path d="M-89.34146381679292,-77.64284077786463L-99.4824213815656,-95.7905123069932L-109.08213990372515,-101.54261007555775z" style="fill:rgb(35,45,161)"/><path d="M-75.59080450483566,-75.8092680152185L-99.4824213815656,-95.7905123069932L-89.34146381679292,-77.64284077786463z" style="fill:rgb(67,34,190)"/><path d="M-113.36990515641224,-110.51622491081818L-25.905372864010584,-125.68979181131354L-19.840958469771223,-137.9117401900387z" style="fill:rgb(83,212,212)"/><path d="M-10.98184113951264,-119.11539049983764L-25.905372864010584,-125.68979181131354L-16.859806717739293,-106.90169658146193z" style="fill:rgb(240,125,187)"/><path d="M-113.36990515641224,-110.51622491081818L-99.4824213815656,-95.7905123069932L-85.60669318162269,-94.10605678562149z" style="fill:rgb(83,212,212)"/><path d="M-10.98184113951264,-119.11539049983764L-19.840958469771223,-137.9117401900387L-25.905372864010584,-125.68979181131354z" style="fill:rgb(240,125,187)"/><path d="M-113.36990515641224,-110.51622491081818L-37.174254286734794,-113.74449524517614L-25.905372864010584,-125.68979181131354zM-113.36990515641224,-110.51622491081818L-85.60669318162269,-94.10605678562149L-69.14870609907183,-96.82604258393286z" style="fill:rgb(83,212,212)"/><path d="M-59.33688599161455,-78.37051809720532L-85.60669318162269,-94.10605678562149L-75.59080450483566,-75.8092680152185z" style="fill:rgb(106,33,210)"/><path d="M-75.59080450483566,-75.8092680152185L-85.60669318162269,-94.10605678562149L-99.4824213815656,-95.7905123069932z" style="fill:rgb(67,34,190)"/><path d="M-16.859806717739293,-106.90169658146193L-37.174254286734794,-113.74449524517614L-27.885463185310364,-95.02404711901357z" style="fill:rgb(219,93,209)"/><path d="M-113.36990515641224,-110.51622491081818L-52.251860227576316,-103.66933716074769L-37.174254286734794,-113.74449524517614zM-113.36990515641224,-110.51622491081818L-69.14870609907183,-96.82604258393286L-52.251860227576316,-103.66933716074769z" style="fill:rgb(83,212,212)"/><path d="M-16.859806717739293,-106.90169658146193L-25.905372864010584,-125.68979181131354L-37.174254286734794,-113.74449524517614z" style="fill:rgb(219,93,209)"/><path d="M-42.69484088522134,-85.06561852884293L-69.14870609907183,-96.82604258393286L-59.33688599161455,-78.37051809720532z" style="fill:rgb(148,44,221)"/><path d="M-27.885463185310364,-95.02404711901357L-52.251860227576316,-103.66933716074769L-42.69484088522134,-85.06561852884293z" style="fill:rgb(187,64,221)"/><path d="M-59.33688599161455,-78.37051809720532L-69.14870609907183,-96.82604258393286L-85.60669318162269,-94.10605678562149z" style="fill:rgb(106,33,210)"/><path d="M-27.885463185310364,-95.02404711901357L-37.174254286734794,-113.74449524517614L-52.251860227576316,-103.66933716074769z" style="fill:rgb(187,64,221)"/><path d="M-42.69484088522134,-85.06561852884293L-52.251860227576316,-103.66933716074769L-69.14870609907183,-96.82604258393286z" style="fill:rgb(148,44,221)"/></svg>
