<?xml version="1.0" encoding="UTF-8"?>
<!-- Generated by jsxcad -->
<!DOCTYPE svg PUBLIC "-//W3C//DTD SVG 1.1 Tiny//EN" "http://www.w3.org/Graphics/SVG/1.1/DTD/svg11-tiny.dtd">
<svg viewBox="-250 -250 500 500" width="500" height="500" xmlns="http://www.w3.org/2000/svg"><path d="M27.81608056164786,138.91563112778658L25.806964235838787,53.6835577988705L9.404103067575686,21.927405439297605zM6.241082100801802,50.89120102452971L9.43073522026718,24.93791395029241L6.0555153094590475,18.422410356549268z" style="fill:rgb(247,158,158)"/><path d="M4.323528280663892,60.16613365199908L6.0555153094590475,18.422410356549268L4.750382653335088,19.03291156860138zM4.323528280663892,60.16613365199908L4.750382653335088,19.03291156860138L4.163698946267632,19.454642582090425zM10.161659958175495,107.56198218273487L9.404103067575686,21.927405439297605L-22.380956087869933,29.917800992501828zM-22.527203891301788,81.5767391831167L4.163698946267632,19.454642582090425L-7.379087422781287,27.756748026173895z" style="fill:rgb(83,212,212)"/><path d="M6.241082100801802,50.89120102452971L9.717836669706067,57.39199504570621L9.43073522026718,24.93791395029241z" style="fill:rgb(247,158,158)"/><path d="M-22.527203891301788,81.5767391831167L-7.379087422781287,27.756748026173895L-17.16417635931756,38.260748201640766zM46.76325180564949,40.98609251629362L46.704558109205784,8.44402402340984L45.35934779386981,8.499722114301063zM46.76325180564949,40.98609251629362L47.317055630224814,8.566008179177011L46.704558109205784,8.44402402340984zM-26.391648818095327,73.24452391731882L-22.342027960573677,47.16417793004059L-23.91584175410902,49.86965832887973zM-22.527203891301788,81.5767391831167L-17.16417635931756,38.260748201640766L-21.818637009769215,46.26372866505883zM4.323528280663892,60.16613365199908L6.241082100801802,50.89120102452971L6.0555153094590475,18.422410356549268zM-23.02641401052271,80.50064369190194L-21.818637009769215,46.26372866505883L-22.342027960573677,47.16417793004059zM-26.391648818095327,73.24452391731882L-23.91584175410902,49.86965832887973L-25.423847049014796,55.52271470108987zM-26.391648818095327,73.24452391731882L-25.423847049014796,55.52271470108987L-27.100236962079443,61.808958527004606z" style="fill:rgb(83,212,212)"/><path d="M9.177387811452272,67.7096927543036L9.717836669706067,57.39199504570621L9.082154087358157,56.20340482477569z" style="fill:rgb(247,158,158)"/><path d="M6.241082100801802,50.89120102452971L7.839096654584542,66.65447043385763L9.717836669706067,57.39199504570621z" style="fill:rgb(245,142,173)"/><path d="M81.29329040954804,3.8552934511105676L90.65428855925887,97.24307182179516L83.82691984522735,11.510758395048091z" style="fill:rgb(250,152,152)"/><path d="M-26.391648818095327,73.24452391731882L-23.02641401052271,80.50064369190194L-22.342027960573677,47.16417793004059zM9.177387811452272,67.7096927543036L9.082154087358157,56.20340482477569L7.196344033190413,65.46820512763729z" style="fill:rgb(83,212,212)"/><path d="M9.177387811452272,67.7096927543036L9.819613550369827,68.89690009779753L9.717836669706067,57.39199504570621zM27.81608056164786,138.91563112778658L9.404103067575686,21.927405439297605L10.161659958175495,107.56198218273487z" style="fill:rgb(247,158,158)"/><path d="M7.196344033190413,65.46820512763729L7.839096654584542,66.65447043385763L9.819613550369827,68.89690009779753z" style="fill:rgb(23,55,145)"/><path d="M87.96755419838365,89.6485820502792L81.29329040954804,3.8552934511105676L48.37606116083382,12.13030484768325z" style="fill:rgb(83,212,212)"/><path d="M6.241082100801802,50.89120102452971L4.323528280663892,60.16613365199908L7.839096654584542,66.65447043385763z" style="fill:rgb(245,142,173)"/><path d="M46.76325180564949,40.98609251629362L49.153487078824696,49.30544727413936L47.317055630224814,8.566008179177011zM-23.02641401052271,80.50064369190194L-22.527203891301788,81.5767391831167L-21.818637009769215,46.26372866505883z" style="fill:rgb(83,212,212)"/><path d="M7.196344033190413,65.46820512763729L9.819613550369827,68.89690009779753L9.177387811452272,67.7096927543036z" style="fill:rgb(23,55,145)"/><path d="M49.413122789970785,46.404719714090476L52.40804988182049,55.937705193191825L50.005984104646735,47.6171005847116z" style="fill:rgb(245,173,142)"/><path d="M50.81939849629496,86.26207001628428L59.44171244315893,10.985409812677705L47.317055630224814,8.566008179177011zM10.161659958175495,107.56198218273487L-22.380956087869933,29.917800992501828L-24.168618820093254,115.46590947804621zM-22.527203891301788,81.5767391831167L4.468403751144269,97.06860030633374L4.163698946267632,19.454642582090425zM-26.391648818095327,73.24452391731882L-24.30678078976291,77.74174383021716L-23.02641401052271,80.50064369190194z" style="fill:rgb(83,212,212)"/><path d="M49.413122789970785,46.404719714090476L51.81305103114469,54.72519927263657L52.40804988182049,55.937705193191825z" style="fill:rgb(245,173,142)"/><path d="M-19.164303316376166,122.3087984057299L18.701098228200344,138.57572846474693L27.81608056164786,138.91563112778658z" style="fill:rgb(127,37,217)"/><path d="M49.93646652830152,57.92286494178661L51.81305103114469,54.72519927263657L49.413122789970785,46.404719714090476z" style="fill:rgb(83,212,212)"/><path d="M80.61037972457777,31.58653947253659L77.57259347764818,24.850282902581466L81.48562295395666,35.341228439494515z" style="fill:rgb(244,176,139)"/><path d="M-19.164303316376166,122.3087984057299L3.9615028644331507,135.42728293143617L18.701098228200344,138.57572846474693z" style="fill:rgb(127,37,217)"/><path d="M80.61037972457777,31.58653947253659L81.48562295395666,35.341228439494515L84.53131107342395,42.08285199873804z" style="fill:rgb(244,176,139)"/><path d="M52.40804988182049,55.937705193191825L51.81305103114469,54.72519927263657L49.93646652830152,57.92286494178661z" style="fill:rgb(231,109,199)"/><path d="M50.81939849629496,86.26207001628428L70.00410441967009,16.556507271655192L59.44171244315893,10.985409812677705z" style="fill:rgb(83,212,212)"/><path d="M52.40804988182049,55.937705193191825L49.93646652830152,57.92286494178661L50.534936615505764,59.13349181106897z" style="fill:rgb(231,109,199)"/><path d="M-19.164303316376166,122.3087984057299L-8.96442718863777,129.8936424106232L3.9615028644331507,135.42728293143617z" style="fill:rgb(127,37,217)"/><path d="M-9.59259416169725,97.64939262281369L-21.717421039778305,83.32348028045767L-17.997300505586185,89.71433938358992z" style="fill:rgb(29,50,154)"/><path d="M77.71948390829466,57.66190801576755L75.80364755813787,22.912353122633046L75.21596980533829,22.267854667210266zM78.18409308935524,56.32582704209255L77.57259347764818,24.850282902581466L75.80364755813787,22.912353122633046z" style="fill:rgb(83,212,212)"/><path d="M-31.95634687453556,-157.43650797017247L75.77825769993767,143.6317787123354L70.33144339122268,58.47404147996989zM6.506433512723311,97.31998500947645L9.819613550369827,68.89690009779753L6.306882569074768,62.404369730954315z" style="fill:rgb(247,158,158)"/><path d="M50.81939849629496,86.26207001628428L75.21596980533829,22.267854667210266L70.00410441967009,16.556507271655192zM-22.527203891301788,81.5767391831167L-21.717421039778305,83.32348028045767L-13.296604519976782,91.24206074985682zM4.468403751144269,97.06860030633374L6.306882569074768,62.404369730954315L4.323528280663892,60.16613365199908z" style="fill:rgb(83,212,212)"/><path d="M68.71592693178083,129.85472774820104L75.74063644691844,125.90616036161451L84.64643708535884,117.37768048497789z" style="fill:rgb(127,37,217)"/><path d="M81.48562295395666,35.341228439494515L84.40063506490557,54.032240551348025L84.53131107342395,42.08285199873804z" style="fill:rgb(247,152,164)"/><path d="M78.18409308935524,56.32582704209255L79.42390961644499,29.812892017379912L77.57259347764818,24.850282902581466z" style="fill:rgb(83,212,212)"/><path d="M-9.59259416169725,97.64939262281369L-13.296604519976782,91.24206074985682L-21.717421039778305,83.32348028045767z" style="fill:rgb(29,50,154)"/><path d="M-19.164303316376166,122.3087984057299L27.81608056164786,138.91563112778658L10.161659958175495,107.56198218273487z" style="fill:rgb(127,37,217)"/><path d="M78.18409308935524,56.32582704209255L81.48562295395666,35.341228439494515L79.42390961644499,29.812892017379912z" style="fill:rgb(83,212,212)"/><path d="M81.48562295395666,35.341228439494515L81.32171783057355,47.300494337417014L84.40063506490557,54.032240551348025z" style="fill:rgb(247,152,164)"/><path d="M87.96755419838365,89.6485820502792L48.37606116083382,12.13030484768325L52.31353564652946,97.85727605503266z" style="fill:rgb(83,212,212)"/><path d="M1.9955620343388145,102.74594741240765L-13.296604519976782,91.24206074985682L-9.59259416169725,97.64939262281369z" style="fill:rgb(51,38,177)"/><path d="M-22.527203891301788,81.5767391831167L-13.296604519976782,91.24206074985682L-1.665393049311036,96.31060954100417z" style="fill:rgb(83,212,212)"/><path d="M68.71592693178083,129.85472774820104L84.64643708535884,117.37768048497789L89.78228552969263,107.59748073954879z" style="fill:rgb(127,37,217)"/><path d="M6.506433512723311,97.31998500947645L10.1281830727723,103.77773742556793L9.819613550369827,68.89690009779753z" style="fill:rgb(247,158,158)"/><path d="M77.71948390829466,57.66190801576755L78.18409308935524,56.32582704209255L75.80364755813787,22.912353122633046z" style="fill:rgb(83,212,212)"/><path d="M81.29329040954804,3.8552934511105676L87.96755419838365,89.6485820502792L90.65428855925887,97.24307182179516z" style="fill:rgb(250,152,152)"/><path d="M-19.164303316376166,122.3087984057299L10.161659958175495,107.56198218273487L-24.168618820093254,115.46590947804621z" style="fill:rgb(127,37,217)"/><path d="M78.18409308935524,56.32582704209255L81.32171783057355,47.300494337417014L81.48562295395666,35.341228439494515zM48.772230166412676,87.47390750664418L49.153487078824696,49.30544727413936L47.26123865104444,52.50952493341719zM-22.527203891301788,81.5767391831167L-1.665393049311036,96.31060954100417L4.468403751144269,97.06860030633374zM4.468403751144269,97.06860030633374L6.506433512723311,97.31998500947645L6.306882569074768,62.404369730954315z" style="fill:rgb(83,212,212)"/><path d="M1.9955620343388145,102.74594741240765L-1.665393049311036,96.31060954100417L-13.296604519976782,91.24206074985682z" style="fill:rgb(51,38,177)"/><path d="M84.40063506490557,54.032240551348025L81.32171783057355,47.300494337417014L76.966355543368,59.829063804786834z" style="fill:rgb(240,126,186)"/><path d="M50.81939849629496,86.26207001628428L77.71948390829466,57.66190801576755L75.21596980533829,22.267854667210266z" style="fill:rgb(83,212,212)"/><path d="M84.40063506490557,54.032240551348025L76.966355543368,59.829063804786834L80.10285932613452,66.53606392648537z" style="fill:rgb(240,126,186)"/><path d="M68.71592693178083,129.85472774820104L89.78228552969263,107.59748073954879L90.65428855925887,97.24307182179516z" style="fill:rgb(127,37,217)"/><path d="M78.18409308935524,56.32582704209255L79.37677137674608,52.89721982885487L81.32171783057355,47.300494337417014z" style="fill:rgb(84,212,212)"/><path d="M1.9955620343388145,102.74594741240765L10.1281830727723,103.77773742556793L6.506433512723311,97.31998500947645zM1.9955620343388145,102.74594741240765L6.506433512723311,97.31998500947645L-1.665393049311036,96.31060954100417z" style="fill:rgb(79,32,197)"/><path d="M68.71592693178083,129.85472774820104L87.96755419838365,89.6485820502792L52.31353564652946,97.85727605503266zM68.71592693178083,129.85472774820104L90.65428855925887,97.24307182179516L87.96755419838365,89.6485820502792z" style="fill:rgb(127,37,217)"/><path d="M80.10285932613452,66.53606392648537L68.6587273932023,71.93195610387964L71.87375209648367,78.6014162307951zM80.10285932613452,66.53606392648537L76.966355543368,59.829063804786834L68.6587273932023,71.93195610387964z" style="fill:rgb(225,100,204)"/><path d="M48.772230166412676,87.47390750664418L50.81939849629496,86.26207001628428L49.153487078824696,49.30544727413936zM50.81939849629496,86.26207001628428L76.966355543368,59.829063804786834L77.71948390829466,57.66190801576755z" style="fill:rgb(83,212,212)"/><path d="M68.6587273932023,71.93195610387964L60.31402788112001,89.22271597451793L71.87375209648367,78.6014162307951z" style="fill:rgb(203,77,216)"/><path d="M50.81939849629496,86.26207001628428L68.6587273932023,71.93195610387964L76.966355543368,59.829063804786834z" style="fill:rgb(83,212,212)"/><path d="M52.139427288172755,94.06657782802107L60.31402788112001,89.22271597451793L57.00553734331547,82.59999622758194z" style="fill:rgb(175,57,222)"/><path d="M68.6587273932023,71.93195610387964L57.00553734331547,82.59999622758194L60.31402788112001,89.22271597451793z" style="fill:rgb(203,77,216)"/><path d="M52.139427288172755,94.06657782802107L57.00553734331547,82.59999622758194L48.772230166412676,87.47390750664418z" style="fill:rgb(175,57,222)"/><path d="M50.81939849629496,86.26207001628428L57.00553734331547,82.59999622758194L68.6587273932023,71.93195610387964z" style="fill:rgb(83,212,212)"/><path d="M35.42128830643979,152.422210473295L75.77825769993767,143.6317787123354L-35.026989862131494,-72.52485049734476z" style="fill:rgb(127,37,217)"/><path d="M-31.95634687453556,-157.43650797017247L-35.026989862131494,-72.52485049734476L75.77825769993767,143.6317787123354z" style="fill:rgb(247,158,158)"/><path d="M35.42128830643979,152.422210473295L-35.026989862131494,-72.52485049734476L-83.63881661496738,-59.02445067279742z" style="fill:rgb(127,37,217)"/><path d="M-76.38776527844466,-144.16675174040722L-35.026989862131494,-72.52485049734476L-31.95634687453556,-157.43650797017247zM-116.07048855646039,-109.41212314713724L-64.38726538571846,-161.84801213506128L-80.9798759070716,-155.00166178378564zM-116.07048855646039,-109.41212314713724L-80.9798759070716,-155.00166178378564L-95.9244647895212,-145.19225290104796zM-116.07048855646039,-109.41212314713724L-47.93305818043442,-164.9730406926258L-64.38726538571846,-161.84801213506128zM-116.07048855646039,-109.41212314713724L-95.9244647895212,-145.19225290104796L-107.58897596884323,-133.4616515497837zM-116.07048855646039,-109.41212314713724L-33.435257223739974,-163.96361132824612L-47.93305818043442,-164.9730406926258zM-116.07048855646039,-109.41212314713724L-107.58897596884323,-133.4616515497837L-114.61815828676578,-121.07006285102881zM-116.07048855646039,-109.41212314713724L-22.599048979612263,-158.81457336137944L-33.435257223739974,-163.96361132824612zM-116.07048855646039,-109.41212314713724L-16.836405294036073,-149.98283032157858L-22.599048979612263,-158.81457336137944zM-76.38776527844466,-144.16675174040722L-83.63881661496738,-59.02445067279742L-35.026989862131494,-72.52485049734476z" style="fill:rgb(83,212,212)"/><path d="M-90.66220028858093,-74.60667324497021L-111.56760718016032,-99.89664485812712L-100.76584633391239,-80.85866879805111z" style="fill:rgb(35,45,161)"/><path d="M-7.62831569079094,-130.1388662691461L-17.05511442602441,-138.40677763337143L-7.725737925408467,-118.50464717195773zM-7.62831569079094,-130.1388662691461L-16.836405294036073,-149.98283032157858L-17.05511442602441,-138.40677763337143z" style="fill:rgb(247,158,158)"/><path d="M-116.07048855646039,-109.41212314713724L-17.05511442602441,-138.40677763337143L-16.836405294036073,-149.98283032157858zM-116.07048855646039,-109.41212314713724L-111.56760718016032,-99.89664485812712L-101.42890288043958,-93.78137815723827z" style="fill:rgb(83,212,212)"/><path d="M-90.66220028858093,-74.60667324497021L-101.42890288043958,-93.78137815723827L-111.56760718016032,-99.89664485812712z" style="fill:rgb(35,45,161)"/><path d="M-76.11295293820811,-72.6335726030716L-101.42890288043958,-93.78137815723827L-90.66220028858093,-74.60667324497021z" style="fill:rgb(67,34,190)"/><path d="M-116.07048855646039,-109.41212314713724L-23.453473587163334,-125.45650384384072L-17.05511442602441,-138.40677763337143z" style="fill:rgb(83,212,212)"/><path d="M-7.725737925408467,-118.50464717195773L-23.453473587163334,-125.45650384384072L-13.915962641421578,-105.56377694521188z" style="fill:rgb(240,125,187)"/><path d="M-116.07048855646039,-109.41212314713724L-101.42890288043958,-93.78137815723827L-86.73975730568351,-91.97467564646279z" style="fill:rgb(83,212,212)"/><path d="M-7.725737925408467,-118.50464717195773L-17.05511442602441,-138.40677763337143L-23.453473587163334,-125.45650384384072z" style="fill:rgb(240,125,187)"/><path d="M-116.07048855646039,-109.41212314713724L-35.38599304995443,-112.78727550721824L-23.453473587163334,-125.45650384384072zM-116.07048855646039,-109.41212314713724L-86.73975730568351,-91.97467564646279L-69.29378888796916,-94.84481751413543z" style="fill:rgb(83,212,212)"/><path d="M-58.89609629157041,-75.32602513969336L-86.73975730568351,-91.97467564646279L-76.11295293820811,-72.6335726030716z" style="fill:rgb(106,33,210)"/><path d="M-76.11295293820811,-72.6335726030716L-86.73975730568351,-91.97467564646279L-101.42890288043958,-93.78137815723827z" style="fill:rgb(67,34,190)"/><path d="M-13.915962641421578,-105.56377694521188L-35.38599304995443,-112.78727550721824L-25.575913633629586,-92.97080034642234z" style="fill:rgb(219,93,209)"/><path d="M-116.07048855646039,-109.41212314713724L-51.372858165629225,-102.09871021859293L-35.38599304995443,-112.78727550721824zM-116.07048855646039,-109.41212314713724L-69.29378888796916,-94.84481751413543L-51.372858165629225,-102.09871021859293z" style="fill:rgb(83,212,212)"/><path d="M-13.915962641421578,-105.56377694521188L-23.453473587163334,-125.45650384384072L-35.38599304995443,-112.78727550721824z" style="fill:rgb(219,93,209)"/><path d="M-41.261538328473776,-82.41356602777168L-69.29378888796916,-94.84481751413543L-58.89609629157041,-75.32602513969336z" style="fill:rgb(148,44,221)"/><path d="M-25.575913633629586,-92.97080034642234L-51.372858165629225,-102.09871021859293L-41.261538328473776,-82.41356602777168z" style="fill:rgb(187,64,221)"/><path d="M-58.89609629157041,-75.32602513969336L-69.29378888796916,-94.84481751413543L-86.73975730568351,-91.97467564646279z" style="fill:rgb(106,33,210)"/><path d="M-25.575913633629586,-92.97080034642234L-35.38599304995443,-112.78727550721824L-51.372858165629225,-102.09871021859293z" style="fill:rgb(187,64,221)"/><path d="M-41.261538328473776,-82.41356602777168L-51.372858165629225,-102.09871021859293L-69.29378888796916,-94.84481751413543z" style="fill:rgb(148,44,221)"/></svg>
