<?xml version="1.0" encoding="UTF-8"?>
<!-- Generated by jsxcad -->
<!DOCTYPE svg PUBLIC "-//W3C//DTD SVG 1.1 Tiny//EN" "http://www.w3.org/Graphics/SVG/1.1/DTD/svg11-tiny.dtd">
<svg viewBox="-250 -250 500 500" width="500" height="500" xmlns="http://www.w3.org/2000/svg"><path d="M34.33299463227753,150.48943901623943L31.88269910152973,65.44625463651138L9.404103067575686,21.927405439297605z" style="fill:rgb(247,158,158)"/><path d="M10.161659958175495,107.56198218273487L9.404103067575686,21.927405439297605L-39.366175909150705,34.18769016848835z" style="fill:rgb(83,212,212)"/><path d="M34.33299463227753,150.48943901623943L9.404103067575686,21.927405439297605L10.161659958175495,107.56198218273487z" style="fill:rgb(247,158,158)"/><path d="M99.31909778560228,-0.6761873909742561L110.24277716618428,92.70879553993036L101.90330644064375,6.938963199948467z" style="fill:rgb(249,154,154)"/><path d="M10.161659958175495,107.56198218273487L-39.366175909150705,34.18769016848835L-42.496193383346494,119.68549249341818zM107.51184531531607,85.1488615280578L99.31909778560228,-0.6761873909742561L48.37606116083382,12.13030484768325z" style="fill:rgb(83,212,212)"/><path d="M10.161659958175495,107.56198218273487L25.29260886918123,150.7357274573344L34.33299463227753,150.48943901623943zM10.161659958175495,107.56198218273487L10.238182634979841,149.28384809858588L25.29260886918123,150.7357274573344zM10.161659958175495,107.56198218273487L-4.082233390049698,146.00690347267826L10.238182634979841,149.28384809858588zM10.161659958175495,107.56198218273487L-17.15075648875782,141.00001071374263L-4.082233390049698,146.00690347267826zM82.330851706,138.2572946017884L93.2151847980243,131.03364372522026L101.8027080994699,122.54992193246447zM10.161659958175495,107.56198218273487L-28.48038111954935,134.4147716393528L-17.15075648875782,141.00001071374263zM82.330851706,138.2572946017884L52.31353564652946,97.85727605503266L74.76777686083389,141.6605581852096z" style="fill:rgb(127,37,217)"/><path d="M-31.95634687453556,-157.43650797017247L75.77825769993767,143.6317787123354L70.33144339122268,58.47404147996989z" style="fill:rgb(247,158,158)"/><path d="M82.330851706,138.2572946017884L101.8027080994699,122.54992193246447L107.69605611650191,113.09751276619986zM10.161659958175495,107.56198218273487L-37.61223829654312,126.45846528534976L-28.48038111954935,134.4147716393528zM82.330851706,138.2572946017884L107.69605611650191,113.09751276619986L110.58261531633232,103.01950031782809zM10.161659958175495,107.56198218273487L-42.496193383346494,119.68549249341818L-37.61223829654312,126.45846528534976z" style="fill:rgb(127,37,217)"/><path d="M107.51184531531607,85.1488615280578L48.37606116083382,12.13030484768325L52.31353564652946,97.85727605503266z" style="fill:rgb(83,212,212)"/><path d="M99.31909778560228,-0.6761873909742561L107.51184531531607,85.1488615280578L110.24277716618428,92.70879553993036z" style="fill:rgb(249,154,154)"/><path d="M82.330851706,138.2572946017884L110.58261531633232,103.01950031782809L110.24277716618428,92.70879553993036zM82.330851706,138.2572946017884L107.51184531531607,85.1488615280578L52.31353564652946,97.85727605503266zM82.330851706,138.2572946017884L110.24277716618428,92.70879553993036L107.51184531531607,85.1488615280578zM35.42128830643979,152.422210473295L75.77825769993767,143.6317787123354L-35.026989862131494,-72.52485049734476z" style="fill:rgb(127,37,217)"/><path d="M-31.95634687453556,-157.43650797017247L-35.026989862131494,-72.52485049734476L75.77825769993767,143.6317787123354z" style="fill:rgb(247,158,158)"/><path d="M35.42128830643979,152.422210473295L-35.026989862131494,-72.52485049734476L-83.63881661496738,-59.02445067279742z" style="fill:rgb(127,37,217)"/><path d="M-76.38776527844466,-144.16675174040722L-35.026989862131494,-72.52485049734476L-31.95634687453556,-157.43650797017247zM-116.07048855646039,-109.41212314713724L-64.38726538571846,-161.84801213506128L-80.9798759070716,-155.00166178378564zM-116.07048855646039,-109.41212314713724L-80.9798759070716,-155.00166178378564L-95.9244647895212,-145.19225290104796zM-116.07048855646039,-109.41212314713724L-47.93305818043442,-164.9730406926258L-64.38726538571846,-161.84801213506128zM-116.07048855646039,-109.41212314713724L-95.9244647895212,-145.19225290104796L-107.58897596884323,-133.4616515497837zM-116.07048855646039,-109.41212314713724L-33.435257223739974,-163.96361132824612L-47.93305818043442,-164.9730406926258zM-116.07048855646039,-109.41212314713724L-107.58897596884323,-133.4616515497837L-114.61815828676578,-121.07006285102881zM-116.07048855646039,-109.41212314713724L-22.599048979612263,-158.81457336137944L-33.435257223739974,-163.96361132824612zM-116.07048855646039,-109.41212314713724L-16.836405294036073,-149.98283032157858L-22.599048979612263,-158.81457336137944zM-76.38776527844466,-144.16675174040722L-83.63881661496738,-59.02445067279742L-35.026989862131494,-72.52485049734476z" style="fill:rgb(83,212,212)"/><path d="M-90.66220028858093,-74.60667324497021L-111.56760718016032,-99.89664485812712L-100.76584633391239,-80.85866879805111z" style="fill:rgb(35,45,161)"/><path d="M-7.62831569079094,-130.1388662691461L-17.05511442602441,-138.40677763337143L-7.725737925408467,-118.50464717195773zM-7.62831569079094,-130.1388662691461L-16.836405294036073,-149.98283032157858L-17.05511442602441,-138.40677763337143z" style="fill:rgb(247,158,158)"/><path d="M-116.07048855646039,-109.41212314713724L-17.05511442602441,-138.40677763337143L-16.836405294036073,-149.98283032157858zM-116.07048855646039,-109.41212314713724L-111.56760718016032,-99.89664485812712L-101.42890288043958,-93.78137815723827z" style="fill:rgb(83,212,212)"/><path d="M-90.66220028858093,-74.60667324497021L-101.42890288043958,-93.78137815723827L-111.56760718016032,-99.89664485812712z" style="fill:rgb(35,45,161)"/><path d="M-76.11295293820811,-72.6335726030716L-101.42890288043958,-93.78137815723827L-90.66220028858093,-74.60667324497021z" style="fill:rgb(67,34,190)"/><path d="M-116.07048855646039,-109.41212314713724L-23.453473587163334,-125.45650384384072L-17.05511442602441,-138.40677763337143z" style="fill:rgb(83,212,212)"/><path d="M-7.725737925408467,-118.50464717195773L-23.453473587163334,-125.45650384384072L-13.915962641421578,-105.56377694521188z" style="fill:rgb(240,125,187)"/><path d="M-116.07048855646039,-109.41212314713724L-101.42890288043958,-93.78137815723827L-86.73975730568351,-91.97467564646279z" style="fill:rgb(83,212,212)"/><path d="M-7.725737925408467,-118.50464717195773L-17.05511442602441,-138.40677763337143L-23.453473587163334,-125.45650384384072z" style="fill:rgb(240,125,187)"/><path d="M-116.07048855646039,-109.41212314713724L-35.38599304995443,-112.78727550721824L-23.453473587163334,-125.45650384384072zM-116.07048855646039,-109.41212314713724L-86.73975730568351,-91.97467564646279L-69.29378888796916,-94.84481751413543z" style="fill:rgb(83,212,212)"/><path d="M-58.89609629157041,-75.32602513969336L-86.73975730568351,-91.97467564646279L-76.11295293820811,-72.6335726030716z" style="fill:rgb(106,33,210)"/><path d="M-76.11295293820811,-72.6335726030716L-86.73975730568351,-91.97467564646279L-101.42890288043958,-93.78137815723827z" style="fill:rgb(67,34,190)"/><path d="M-13.915962641421578,-105.56377694521188L-35.38599304995443,-112.78727550721824L-25.575913633629586,-92.97080034642234z" style="fill:rgb(219,93,209)"/><path d="M-116.07048855646039,-109.41212314713724L-51.372858165629225,-102.09871021859293L-35.38599304995443,-112.78727550721824zM-116.07048855646039,-109.41212314713724L-69.29378888796916,-94.84481751413543L-51.372858165629225,-102.09871021859293z" style="fill:rgb(83,212,212)"/><path d="M-13.915962641421578,-105.56377694521188L-23.453473587163334,-125.45650384384072L-35.38599304995443,-112.78727550721824z" style="fill:rgb(219,93,209)"/><path d="M-41.261538328473776,-82.41356602777168L-69.29378888796916,-94.84481751413543L-58.89609629157041,-75.32602513969336z" style="fill:rgb(148,44,221)"/><path d="M-25.575913633629586,-92.97080034642234L-51.372858165629225,-102.09871021859293L-41.261538328473776,-82.41356602777168z" style="fill:rgb(187,64,221)"/><path d="M-58.89609629157041,-75.32602513969336L-69.29378888796916,-94.84481751413543L-86.73975730568351,-91.97467564646279z" style="fill:rgb(106,33,210)"/><path d="M-25.575913633629586,-92.97080034642234L-35.38599304995443,-112.78727550721824L-51.372858165629225,-102.09871021859293z" style="fill:rgb(187,64,221)"/><path d="M-41.261538328473776,-82.41356602777168L-51.372858165629225,-102.09871021859293L-69.29378888796916,-94.84481751413543z" style="fill:rgb(148,44,221)"/></svg>
